<svg width="32" height="33" viewBox="0 0 32 33" fill="none" xmlns="http://www.w3.org/2000/svg">
<path d="M16 20.625C17.0609 20.625 18.0783 20.1904 18.8284 19.4168C19.5786 18.6432 20 17.594 20 16.5C20 15.406 19.5786 14.3568 18.8284 13.5832C18.0783 12.8096 17.0609 12.375 16 12.375C14.9391 12.375 13.9217 12.8096 13.1716 13.5832C12.4214 14.3568 12 15.406 12 16.5C12 17.594 12.4214 18.6432 13.1716 19.4168C13.9217 20.1904 14.9391 20.625 16 20.625Z" stroke="white" stroke-width="1.5" stroke-miterlimit="10" stroke-linecap="round" stroke-linejoin="round"/>
<path d="M2.66667 17.71V15.29C2.66667 13.86 3.8 12.6775 5.2 12.6775C7.61333 12.6775 8.6 10.9175 7.38667 8.75875C6.69333 7.52125 7.10667 5.9125 8.32 5.1975L10.6267 3.83625C11.68 3.19 13.04 3.575 13.6667 4.66125L13.8133 4.9225C15.0133 7.08125 16.9867 7.08125 18.2 4.9225L18.3467 4.66125C18.9733 3.575 20.3333 3.19 21.3867 3.83625L23.6933 5.1975C24.9067 5.9125 25.32 7.52125 24.6267 8.75875C23.4133 10.9175 24.4 12.6775 26.8133 12.6775C28.2 12.6775 29.3467 13.8463 29.3467 15.29V17.71C29.3467 19.14 28.2133 20.3225 26.8133 20.3225C24.4 20.3225 23.4133 22.0825 24.6267 24.2413C25.32 25.4925 24.9067 27.0875 23.6933 27.8025L21.3867 29.1638C20.3333 29.81 18.9733 29.425 18.3467 28.3388L18.2 28.0775C17 25.9188 15.0267 25.9188 13.8133 28.0775L13.6667 28.3388C13.04 29.425 11.68 29.81 10.6267 29.1638L8.32 27.8025C7.7388 27.4574 7.31411 26.8886 7.13913 26.2209C6.96415 25.5533 7.05317 24.8413 7.38667 24.2413C8.6 22.0825 7.61333 20.3225 5.2 20.3225C3.8 20.3225 2.66667 19.14 2.66667 17.71Z" stroke="white" stroke-width="1.5" stroke-miterlimit="10" stroke-linecap="round" stroke-linejoin="round"/>
</svg>
