<svg width="414" height="597" viewBox="0 0 414 597" fill="none" xmlns="http://www.w3.org/2000/svg">
<path d="M262.683 31.8371C225.976 76.6807 255.595 122.866 226.443 147.018C195.314 172.809 153.811 132.908 119.771 162.738C104.192 176.389 86.0969 208.232 87.9589 239.375C88.5987 250.137 91.6973 261.938 86.0897 276.712C85.1192 279.261 78.9294 294.974 65.5073 302.255C47.2038 312.177 19.7413 304.148 0 280.638C1.09994 493.346 1.02804 590.731 0 593.894V597.002C79.6339 597.002 311.699 597.002 407.832 597.002C409.751 597.002 411.872 596.098 413.59 597.002C413.59 434.823 413.59 272.651 413.59 110.472C414.115 105.374 418.659 52.7971 378.989 20.8203C371.325 14.6411 342.979 -4.91357 308.507 1.15268C284.323 5.41107 269.039 24.083 262.683 31.8371Z" fill="#9756B9"/>
</svg>
